{
	"asset":{
		"generator":"Khronos glTF Blender I/O v4.1.63",
		"version":"2.0"
	},
	"scene":0,
	"scenes":[
		{
			"name":"Scene",
			"nodes":[
				0
			]
		}
	],
	"nodes":[
		{
			"mesh":0,
			"name":"Cube.010",
			"translation":[
				-1.7307331562042236,
				-2.705270290374756,
				2.47682785987854
			]
		}
	],
	"materials":[
		{
			"doubleSided":true,
			"name":"Material.004",
			"pbrMetallicRoughness":{
				"baseColorFactor":[
					0,
					0,
					0,
					1
				],
				"metallicFactor":0,
				"roughnessFactor":0.5
			}
		},
		{
			"doubleSided":true,
			"name":"Material.010",
			"pbrMetallicRoughness":{
				"baseColorFactor":[
					1.000169277191162,
					0.09758300334215164,
					0,
					1
				],
				"metallicFactor":0,
				"roughnessFactor":0.4000000059604645
			}
		}
	],
	"meshes":[
		{
			"name":"Cube.011",
			"primitives":[
				{
					"attributes":{
						"POSITION":0,
						"NORMAL":1,
						"TEXCOORD_0":2,
						"TANGENT":3
					},
					"indices":4,
					"material":0
				},
				{
					"attributes":{
						"POSITION":5,
						"NORMAL":6,
						"TEXCOORD_0":7,
						"TANGENT":8
					},
					"indices":9,
					"material":1
				}
			]
		}
	],
	"accessors":[
		{
			"bufferView":0,
			"componentType":5126,
			"count":129,
			"max":[
				2.751338481903076,
				3.745640277862549,
				0.5137407779693604
			],
			"min":[
				0.7513383626937866,
				1.7456402778625488,
				-1.4862592220306396
			],
			"type":"VEC3"
		},
		{
			"bufferView":1,
			"componentType":5126,
			"count":129,
			"type":"VEC3"
		},
		{
			"bufferView":2,
			"componentType":5126,
			"count":129,
			"type":"VEC2"
		},
		{
			"bufferView":3,
			"componentType":5126,
			"count":129,
			"type":"VEC4"
		},
		{
			"bufferView":4,
			"componentType":5123,
			"count":558,
			"type":"SCALAR"
		},
		{
			"bufferView":5,
			"componentType":5126,
			"count":4,
			"max":[
				2.5513381958007812,
				3.545640230178833,
				0.5137407779693604
			],
			"min":[
				0.9513384103775024,
				1.9456403255462646,
				0.5137407779693604
			],
			"type":"VEC3"
		},
		{
			"bufferView":6,
			"componentType":5126,
			"count":4,
			"type":"VEC3"
		},
		{
			"bufferView":7,
			"componentType":5126,
			"count":4,
			"type":"VEC2"
		},
		{
			"bufferView":8,
			"componentType":5126,
			"count":4,
			"type":"VEC4"
		},
		{
			"bufferView":9,
			"componentType":5123,
			"count":6,
			"type":"SCALAR"
		}
	],
	"bufferViews":[
		{
			"buffer":0,
			"byteLength":1548,
			"byteOffset":0,
			"target":34962
		},
		{
			"buffer":0,
			"byteLength":1548,
			"byteOffset":1548,
			"target":34962
		},
		{
			"buffer":0,
			"byteLength":1032,
			"byteOffset":3096,
			"target":34962
		},
		{
			"buffer":0,
			"byteLength":2064,
			"byteOffset":4128,
			"target":34962
		},
		{
			"buffer":0,
			"byteLength":1116,
			"byteOffset":6192,
			"target":34963
		},
		{
			"buffer":0,
			"byteLength":48,
			"byteOffset":7308,
			"target":34962
		},
		{
			"buffer":0,
			"byteLength":48,
			"byteOffset":7356,
			"target":34962
		},
		{
			"buffer":0,
			"byteLength":32,
			"byteOffset":7404,
			"target":34962
		},
		{
			"buffer":0,
			"byteLength":64,
			"byteOffset":7436,
			"target":34962
		},
		{
			"buffer":0,
			"byteLength":12,
			"byteOffset":7500,
			"target":34963
		}
	],
	"buffers":[
		{
			"byteLength":7512,
			"uri":"cube_up_center.bin"
		}
	]
}
