{
	"asset":{
		"generator":"Khronos glTF Blender I/O v4.1.63",
		"version":"2.0"
	},
	"scene":0,
	"scenes":[
		{
			"name":"Scene",
			"nodes":[
				0
			]
		}
	],
	"nodes":[
		{
			"mesh":0,
			"name":"Cube.025",
			"translation":[
				-1.7307331562042236,
				-2.705270290374756,
				2.47682785987854
			]
		}
	],
	"materials":[
		{
			"doubleSided":true,
			"name":"Material.004",
			"pbrMetallicRoughness":{
				"baseColorFactor":[
					0,
					0,
					0,
					1
				],
				"metallicFactor":0,
				"roughnessFactor":0.5
			}
		},
		{
			"doubleSided":true,
			"name":"Material.007",
			"pbrMetallicRoughness":{
				"baseColorFactor":[
					0.800000011920929,
					0.800000011920929,
					0.800000011920929,
					1
				],
				"metallicFactor":0,
				"roughnessFactor":0.5
			}
		},
		{
			"doubleSided":true,
			"name":"Material.008",
			"pbrMetallicRoughness":{
				"baseColorFactor":[
					0.4736118018627167,
					0.006048496812582016,
					0.03433734178543091,
					1
				],
				"metallicFactor":0,
				"roughnessFactor":0.5
			}
		}
	],
	"meshes":[
		{
			"name":"Cube.026",
			"primitives":[
				{
					"attributes":{
						"POSITION":0,
						"NORMAL":1,
						"TEXCOORD_0":2,
						"TANGENT":3
					},
					"indices":4,
					"material":0
				},
				{
					"attributes":{
						"POSITION":5,
						"NORMAL":6,
						"TEXCOORD_0":7,
						"TANGENT":8
					},
					"indices":9,
					"material":1
				},
				{
					"attributes":{
						"POSITION":10,
						"NORMAL":11,
						"TEXCOORD_0":12,
						"TANGENT":13
					},
					"indices":14,
					"material":2
				}
			]
		}
	],
	"accessors":[
		{
			"bufferView":0,
			"componentType":5126,
			"count":129,
			"max":[
				2.751338005065918,
				5.745640754699707,
				-3.486259698867798
			],
			"min":[
				0.7513381242752075,
				3.745640754699707,
				-5.486259460449219
			],
			"type":"VEC3"
		},
		{
			"bufferView":1,
			"componentType":5126,
			"count":129,
			"type":"VEC3"
		},
		{
			"bufferView":2,
			"componentType":5126,
			"count":129,
			"type":"VEC2"
		},
		{
			"bufferView":3,
			"componentType":5126,
			"count":129,
			"type":"VEC4"
		},
		{
			"bufferView":4,
			"componentType":5123,
			"count":552,
			"type":"SCALAR"
		},
		{
			"bufferView":5,
			"componentType":5126,
			"count":4,
			"max":[
				2.5513381958007812,
				5.745640754699707,
				-3.6862597465515137
			],
			"min":[
				0.9513381719589233,
				5.745640754699707,
				-5.286259651184082
			],
			"type":"VEC3"
		},
		{
			"bufferView":6,
			"componentType":5126,
			"count":4,
			"type":"VEC3"
		},
		{
			"bufferView":7,
			"componentType":5126,
			"count":4,
			"type":"VEC2"
		},
		{
			"bufferView":8,
			"componentType":5126,
			"count":4,
			"type":"VEC4"
		},
		{
			"bufferView":9,
			"componentType":5123,
			"count":6,
			"type":"SCALAR"
		},
		{
			"bufferView":10,
			"componentType":5126,
			"count":4,
			"max":[
				2.5513381958007812,
				5.54564094543457,
				-5.486259460449219
			],
			"min":[
				0.9513381719589233,
				3.945640802383423,
				-5.486259460449219
			],
			"type":"VEC3"
		},
		{
			"bufferView":11,
			"componentType":5126,
			"count":4,
			"type":"VEC3"
		},
		{
			"bufferView":12,
			"componentType":5126,
			"count":4,
			"type":"VEC2"
		},
		{
			"bufferView":13,
			"componentType":5126,
			"count":4,
			"type":"VEC4"
		},
		{
			"bufferView":14,
			"componentType":5123,
			"count":6,
			"type":"SCALAR"
		}
	],
	"bufferViews":[
		{
			"buffer":0,
			"byteLength":1548,
			"byteOffset":0,
			"target":34962
		},
		{
			"buffer":0,
			"byteLength":1548,
			"byteOffset":1548,
			"target":34962
		},
		{
			"buffer":0,
			"byteLength":1032,
			"byteOffset":3096,
			"target":34962
		},
		{
			"buffer":0,
			"byteLength":2064,
			"byteOffset":4128,
			"target":34962
		},
		{
			"buffer":0,
			"byteLength":1104,
			"byteOffset":6192,
			"target":34963
		},
		{
			"buffer":0,
			"byteLength":48,
			"byteOffset":7296,
			"target":34962
		},
		{
			"buffer":0,
			"byteLength":48,
			"byteOffset":7344,
			"target":34962
		},
		{
			"buffer":0,
			"byteLength":32,
			"byteOffset":7392,
			"target":34962
		},
		{
			"buffer":0,
			"byteLength":64,
			"byteOffset":7424,
			"target":34962
		},
		{
			"buffer":0,
			"byteLength":12,
			"byteOffset":7488,
			"target":34963
		},
		{
			"buffer":0,
			"byteLength":48,
			"byteOffset":7500,
			"target":34962
		},
		{
			"buffer":0,
			"byteLength":48,
			"byteOffset":7548,
			"target":34962
		},
		{
			"buffer":0,
			"byteLength":32,
			"byteOffset":7596,
			"target":34962
		},
		{
			"buffer":0,
			"byteLength":64,
			"byteOffset":7628,
			"target":34962
		},
		{
			"buffer":0,
			"byteLength":12,
			"byteOffset":7692,
			"target":34963
		}
	],
	"buffers":[
		{
			"byteLength":7704,
			"uri":"cube_front_down_edge.bin"
		}
	]
}
